<svg id="Capa_1" enable-background="new 0 0 512.071 512.071" height="512" viewBox="0 0 512.071 512.071" width="512" xmlns="http://www.w3.org/2000/svg"><g><path d="m470.33 299.372h-31.062v-46.593c0-8.578 6.954-15.531 15.531-15.531 8.578 0 15.531 6.954 15.531 15.531z" fill="#ffe177"/><path d="m462.298 239.181c-2.224-1.229-4.779-1.933-7.5-1.933-8.578 0-15.531 6.953-15.531 15.531v46.594h15v-46.594c0-5.857 3.245-10.952 8.031-13.598z" fill="#ffd15b"/><path d="m279.297 504.482-23.297-15.592-23.297 15.592v-77.737h46.594z" fill="#ff8086"/><path d="m279.3 426.74v77.74l-21.6-14.45-1.7-1.14-23.3 15.59v-77.74z" fill="#ff8086"/><path d="m257.7 426.74v63.29l-1.7-1.14-23.3 15.59v-77.74z" fill="#e5646e"/><path d="m69.626 352.08h31.062v62.125h-31.062z" fill="#f3faff"/><path d="m69.626 352.08h20v62.125h-20z" fill="#d8ecfe"/><path d="m411.311 352.08h31.062v62.125h-31.062z" fill="#f3faff"/><path d="m411.311 352.08h20v62.125h-20z" fill="#d8ecfe"/><path d="m106.901 146.821v107.7l10.913 4.85c87.975 39.1 188.396 39.1 276.371 0l10.913-4.85v-107.7z" fill="#7883a0"/><path d="m106.901 146.821v107.7l10.913 4.85c9.559 4.249 19.266 8.034 29.087 11.359v-54.213c0-10.612 10.718-17.868 20.571-13.927l88.528 35.412 149.099-59.64v-31.541z" fill="#697491"/><path d="m256 7.662-248.498 99.399 248.498 99.4 248.498-99.4z" fill="#7883a0"/><path d="m100.689 336.549h310.623v93.187h-310.623z" fill="#f3faff"/><path d="m100.689 336.549h30v93.187h-30z" fill="#d8ecfe"/><path d="m232.703 336.549h46.593v93.187h-46.593z" fill="#ff8086"/><path d="m232.703 336.549h25v93.187h-25z" fill="#e5646e"/><circle cx="256" cy="419.217" fill="#ffe177" r="38.828"/><path d="m247.172 419.217c0-16.126 9.832-29.954 23.828-35.821-4.615-1.935-9.682-3.006-15-3.006-21.444 0-38.828 17.384-38.828 38.828s17.384 38.828 38.828 38.828c5.318 0 10.385-1.072 15-3.006-13.995-5.869-23.828-19.697-23.828-35.823z" fill="#ffd15b"/><g><path d="m507.285 100.097-106.91-42.761c-3.845-1.538-8.21.334-9.749 4.179-1.538 3.846.333 8.211 4.179 9.749l89.5 35.797-30.555 12.222-174.678-19.056c-2.953-9.951-12.176-17.231-23.072-17.231-13.271 0-24.066 10.796-24.066 24.066s10.796 24.066 24.066 24.066c10.39 0 19.262-6.619 22.624-15.861l145.486 15.871-168.11 67.244-228.306-91.321 228.306-91.323 108.455 43.386c3.845 1.537 8.21-.333 9.749-4.179s-.332-8.21-4.178-9.749l-111.24-44.5c-1.788-.715-3.783-.715-5.571 0l-248.5 99.4c-2.848 1.14-4.715 3.898-4.715 6.965s1.867 5.824 4.714 6.964l94.686 37.874v102.622c0 2.964 1.745 5.649 4.454 6.854 41.998 19.16 89.131 34.426 135.813 34.426 3.978 0 7.293-3.126 7.485-7.142.198-4.138-2.996-7.652-7.133-7.85-43.225-2.067-86.44-12.686-125.618-31.162v-91.748l138.814 55.525c1.857.715 3.714.715 5.571 0l138.814-55.525v91.748c-39.178 18.476-82.393 29.095-125.618 31.162-4.138.197-7.332 3.712-7.133 7.85.192 4.016 3.507 7.142 7.485 7.142 46.682 0 93.814-15.266 135.813-34.426 2.708-1.204 4.454-3.89 4.454-6.854v-102.622l34.698-13.879v92.988c-9.027 3.119-15.531 11.697-15.531 21.771v46.593c0 4.143 3.358 7.5 7.5 7.5h31.063c4.142 0 7.5-3.357 7.5-7.5v-46.593c0-10.074-6.504-18.652-15.531-21.771v-98.988l44.987-17.995c6.38-1.865 6.38-11.531-.002-13.928zm-251.285 16.031c-4.999 0-9.066-4.067-9.066-9.066s4.067-9.066 9.066-9.066 9.066 4.067 9.066 9.066-4.067 9.066-9.066 9.066zm206.83 175.743h-16.063v-39.093c0-4.429 3.603-8.031 8.031-8.031s8.031 3.603 8.031 8.031v39.093z"/><path d="m442.374 344.58h-23.564v-8.03c0-4.143-3.358-7.5-7.5-7.5h-310.62c-4.142 0-7.5 3.357-7.5 7.5v8.03h-23.564c-4.142 0-7.5 3.357-7.5 7.5v62.125c0 4.143 3.358 7.5 7.5 7.5h23.564v8.035c0 4.143 3.358 7.5 7.5 7.5h112.632c2.699 6.368 6.789 12.005 11.878 16.544v50.696c1.399 6.743 5.289 8.82 11.671 6.233l19.129-12.798 19.129 12.799c4.541 3.037 11.671.055 11.671-6.233v-50.696c5.089-4.54 9.179-10.177 11.878-16.544h31.352c4.142 0 7.5-3.357 7.5-7.5s-3.358-7.5-7.5-7.5h-27.812c.861-13.288-5.664-28.89-15.418-37.591v-40.6h117.01v78.19h-41.1c-4.142 0-7.5 3.357-7.5 7.5s3.358 7.5 7.5 7.5h48.6c4.142 0 7.5-3.357 7.5-7.5v-8.035h23.563c4.142 0 7.5-3.357 7.5-7.5v-62.125c.001-4.142-3.357-7.5-7.499-7.5zm-349.185 62.125h-16.063v-47.125h16.063zm15.001 15.535v-78.19h117.01v40.599c-9.755 8.701-16.279 24.303-15.418 37.591zm163.61 68.199-11.629-7.781c-2.524-1.689-5.817-1.689-8.342 0l-11.629 7.781v-27.671c10.533 3.703 21.066 3.703 31.6 0zm-15.8-39.894c-17.274 0-31.328-14.054-31.328-31.328s14.054-31.328 31.328-31.328 31.328 14.054 31.328 31.328-14.054 31.328-31.328 31.328zm15.8-74.879c-10.533-3.703-21.066-3.703-31.6 0v-31.616h31.6zm163.074 31.039h-16.063v-47.125h16.063z"/></g><circle cx="256" cy="419.217" r="7.583"/></g></svg>